<mxfile host="Electron" modified="2024-01-21T23:55:50.383Z" agent="Mozilla/5.0 (Windows NT 10.0; Win64; x64) AppleWebKit/537.36 (KHTML, like Gecko) draw.io/22.1.21 Chrome/120.0.6099.109 Electron/28.1.0 Safari/537.36" etag="Glq5zWdILrScdJ0UIcPZ" version="22.1.21" type="device">
  <diagram id="NojSB9YsHUgld7k8VoaS" name="Página-1">
    <mxGraphModel dx="2074" dy="2005" grid="1" gridSize="10" guides="1" tooltips="1" connect="1" arrows="1" fold="1" page="1" pageScale="1" pageWidth="827" pageHeight="1169" math="0" shadow="0">
      <root>
        <mxCell id="0" />
        <mxCell id="1" parent="0" />
        <mxCell id="tvmYtzpyHxfjCvwNAI-o-1" value="AWS Cloud" style="points=[[0,0],[0.25,0],[0.5,0],[0.75,0],[1,0],[1,0.25],[1,0.5],[1,0.75],[1,1],[0.75,1],[0.5,1],[0.25,1],[0,1],[0,0.75],[0,0.5],[0,0.25]];outlineConnect=0;gradientColor=none;html=1;whiteSpace=wrap;fontSize=12;fontStyle=0;container=1;pointerEvents=0;collapsible=0;recursiveResize=0;shape=mxgraph.aws4.group;grIcon=mxgraph.aws4.group_aws_cloud_alt;strokeColor=#232F3E;fillColor=none;verticalAlign=top;align=left;spacingLeft=30;fontColor=#232F3E;dashed=0;" parent="1" vertex="1">
          <mxGeometry x="250" y="10" width="700" height="530" as="geometry" />
        </mxCell>
        <mxCell id="tvmYtzpyHxfjCvwNAI-o-2" value="VPC" style="points=[[0,0],[0.25,0],[0.5,0],[0.75,0],[1,0],[1,0.25],[1,0.5],[1,0.75],[1,1],[0.75,1],[0.5,1],[0.25,1],[0,1],[0,0.75],[0,0.5],[0,0.25]];outlineConnect=0;gradientColor=none;html=1;whiteSpace=wrap;fontSize=12;fontStyle=0;container=1;pointerEvents=0;collapsible=0;recursiveResize=0;shape=mxgraph.aws4.group;grIcon=mxgraph.aws4.group_vpc;strokeColor=#248814;fillColor=none;verticalAlign=top;align=left;spacingLeft=30;fontColor=#AAB7B8;dashed=0;" parent="tvmYtzpyHxfjCvwNAI-o-1" vertex="1">
          <mxGeometry x="30" y="30" width="640" height="470" as="geometry" />
        </mxCell>
        <mxCell id="tvmYtzpyHxfjCvwNAI-o-3" value="Public subnet" style="points=[[0,0],[0.25,0],[0.5,0],[0.75,0],[1,0],[1,0.25],[1,0.5],[1,0.75],[1,1],[0.75,1],[0.5,1],[0.25,1],[0,1],[0,0.75],[0,0.5],[0,0.25]];outlineConnect=0;gradientColor=none;html=1;whiteSpace=wrap;fontSize=12;fontStyle=0;container=1;pointerEvents=0;collapsible=0;recursiveResize=0;shape=mxgraph.aws4.group;grIcon=mxgraph.aws4.group_security_group;grStroke=0;strokeColor=#248814;fillColor=#E9F3E6;verticalAlign=top;align=left;spacingLeft=30;fontColor=#248814;dashed=0;" parent="tvmYtzpyHxfjCvwNAI-o-2" vertex="1">
          <mxGeometry x="30" y="35" width="440" height="290" as="geometry" />
        </mxCell>
        <mxCell id="tvmYtzpyHxfjCvwNAI-o-4" value="Security group" style="fillColor=none;strokeColor=#DD3522;verticalAlign=top;fontStyle=0;fontColor=#DD3522;" parent="tvmYtzpyHxfjCvwNAI-o-3" vertex="1">
          <mxGeometry x="20" y="40" width="190" height="230" as="geometry" />
        </mxCell>
        <mxCell id="tvmYtzpyHxfjCvwNAI-o-12" style="edgeStyle=orthogonalEdgeStyle;rounded=0;orthogonalLoop=1;jettySize=auto;html=1;" parent="tvmYtzpyHxfjCvwNAI-o-3" source="tvmYtzpyHxfjCvwNAI-o-5" target="tvmYtzpyHxfjCvwNAI-o-11" edge="1">
          <mxGeometry relative="1" as="geometry" />
        </mxCell>
        <mxCell id="tvmYtzpyHxfjCvwNAI-o-5" value="Microsserviço" style="sketch=0;points=[[0,0,0],[0.25,0,0],[0.5,0,0],[0.75,0,0],[1,0,0],[0,1,0],[0.25,1,0],[0.5,1,0],[0.75,1,0],[1,1,0],[0,0.25,0],[0,0.5,0],[0,0.75,0],[1,0.25,0],[1,0.5,0],[1,0.75,0]];outlineConnect=0;fontColor=#232F3E;gradientColor=#F78E04;gradientDirection=north;fillColor=#D05C17;strokeColor=#ffffff;dashed=0;verticalLabelPosition=top;verticalAlign=bottom;align=center;html=1;fontSize=12;fontStyle=0;aspect=fixed;shape=mxgraph.aws4.resourceIcon;resIcon=mxgraph.aws4.ec2;labelPosition=center;" parent="tvmYtzpyHxfjCvwNAI-o-3" vertex="1">
          <mxGeometry x="76" y="100" width="78" height="78" as="geometry" />
        </mxCell>
        <mxCell id="tvmYtzpyHxfjCvwNAI-o-7" value="Porta 8080" style="text;html=1;strokeColor=none;fillColor=none;align=center;verticalAlign=middle;whiteSpace=wrap;rounded=0;" parent="tvmYtzpyHxfjCvwNAI-o-3" vertex="1">
          <mxGeometry x="140" y="240" width="70" height="30" as="geometry" />
        </mxCell>
        <mxCell id="tvmYtzpyHxfjCvwNAI-o-10" value="Security group" style="fillColor=none;strokeColor=#DD3522;verticalAlign=top;fontStyle=0;fontColor=#DD3522;" parent="tvmYtzpyHxfjCvwNAI-o-3" vertex="1">
          <mxGeometry x="230" y="40" width="190" height="230" as="geometry" />
        </mxCell>
        <mxCell id="tvmYtzpyHxfjCvwNAI-o-11" value="MySQL" style="sketch=0;points=[[0,0,0],[0.25,0,0],[0.5,0,0],[0.75,0,0],[1,0,0],[0,1,0],[0.25,1,0],[0.5,1,0],[0.75,1,0],[1,1,0],[0,0.25,0],[0,0.5,0],[0,0.75,0],[1,0.25,0],[1,0.5,0],[1,0.75,0]];outlineConnect=0;fontColor=#232F3E;gradientColor=#4D72F3;gradientDirection=north;fillColor=#3334B9;strokeColor=#ffffff;dashed=0;verticalLabelPosition=bottom;verticalAlign=top;align=center;html=1;fontSize=12;fontStyle=0;aspect=fixed;shape=mxgraph.aws4.resourceIcon;resIcon=mxgraph.aws4.rds;" parent="tvmYtzpyHxfjCvwNAI-o-3" vertex="1">
          <mxGeometry x="286" y="100" width="78" height="78" as="geometry" />
        </mxCell>
        <mxCell id="tvmYtzpyHxfjCvwNAI-o-13" value="LabInstanceProfile" style="sketch=0;outlineConnect=0;fontColor=#232F3E;gradientColor=none;fillColor=#BF0816;strokeColor=none;dashed=0;verticalLabelPosition=bottom;verticalAlign=top;align=center;html=1;fontSize=12;fontStyle=0;aspect=fixed;pointerEvents=1;shape=mxgraph.aws4.role;" parent="tvmYtzpyHxfjCvwNAI-o-3" vertex="1">
          <mxGeometry x="50" y="215" width="53.18" height="30" as="geometry" />
        </mxCell>
        <mxCell id="tvmYtzpyHxfjCvwNAI-o-8" value="Parameter Store" style="sketch=0;outlineConnect=0;fontColor=#232F3E;gradientColor=none;fillColor=#B0084D;strokeColor=none;dashed=0;verticalLabelPosition=bottom;verticalAlign=top;align=center;html=1;fontSize=12;fontStyle=0;aspect=fixed;pointerEvents=1;shape=mxgraph.aws4.parameter_store;" parent="tvmYtzpyHxfjCvwNAI-o-2" vertex="1">
          <mxGeometry x="129" y="350" width="75" height="78" as="geometry" />
        </mxCell>
        <mxCell id="tvmYtzpyHxfjCvwNAI-o-9" value="Arquivos" style="sketch=0;points=[[0,0,0],[0.25,0,0],[0.5,0,0],[0.75,0,0],[1,0,0],[0,1,0],[0.25,1,0],[0.5,1,0],[0.75,1,0],[1,1,0],[0,0.25,0],[0,0.5,0],[0,0.75,0],[1,0.25,0],[1,0.5,0],[1,0.75,0]];outlineConnect=0;fontColor=#232F3E;gradientColor=#60A337;gradientDirection=north;fillColor=#277116;strokeColor=#ffffff;dashed=0;verticalLabelPosition=bottom;verticalAlign=top;align=center;html=1;fontSize=12;fontStyle=0;aspect=fixed;shape=mxgraph.aws4.resourceIcon;resIcon=mxgraph.aws4.s3;" parent="tvmYtzpyHxfjCvwNAI-o-2" vertex="1">
          <mxGeometry x="320" y="350" width="78" height="78" as="geometry" />
        </mxCell>
        <mxCell id="tvmYtzpyHxfjCvwNAI-o-26" style="edgeStyle=orthogonalEdgeStyle;rounded=0;orthogonalLoop=1;jettySize=auto;html=1;entryX=0.5;entryY=0;entryDx=0;entryDy=0;entryPerimeter=0;" parent="tvmYtzpyHxfjCvwNAI-o-2" source="tvmYtzpyHxfjCvwNAI-o-19" target="tvmYtzpyHxfjCvwNAI-o-20" edge="1">
          <mxGeometry relative="1" as="geometry" />
        </mxCell>
        <mxCell id="tvmYtzpyHxfjCvwNAI-o-31" value="Notifica o recebimento" style="edgeLabel;html=1;align=center;verticalAlign=middle;resizable=0;points=[];" parent="tvmYtzpyHxfjCvwNAI-o-26" vertex="1" connectable="0">
          <mxGeometry x="-0.1538" relative="1" as="geometry">
            <mxPoint as="offset" />
          </mxGeometry>
        </mxCell>
        <mxCell id="tvmYtzpyHxfjCvwNAI-o-19" value="SNS" style="sketch=0;points=[[0,0,0],[0.25,0,0],[0.5,0,0],[0.75,0,0],[1,0,0],[0,1,0],[0.25,1,0],[0.5,1,0],[0.75,1,0],[1,1,0],[0,0.25,0],[0,0.5,0],[0,0.75,0],[1,0.25,0],[1,0.5,0],[1,0.75,0]];outlineConnect=0;fontColor=#232F3E;gradientColor=#FF4F8B;gradientDirection=north;fillColor=#BC1356;strokeColor=#ffffff;dashed=0;verticalLabelPosition=top;verticalAlign=bottom;align=center;html=1;fontSize=12;fontStyle=0;aspect=fixed;shape=mxgraph.aws4.resourceIcon;resIcon=mxgraph.aws4.sns;labelPosition=center;" parent="tvmYtzpyHxfjCvwNAI-o-2" vertex="1">
          <mxGeometry x="530" y="80" width="78" height="78" as="geometry" />
        </mxCell>
        <mxCell id="tvmYtzpyHxfjCvwNAI-o-20" value="SQS" style="sketch=0;points=[[0,0,0],[0.25,0,0],[0.5,0,0],[0.75,0,0],[1,0,0],[0,1,0],[0.25,1,0],[0.5,1,0],[0.75,1,0],[1,1,0],[0,0.25,0],[0,0.5,0],[0,0.75,0],[1,0.25,0],[1,0.5,0],[1,0.75,0]];outlineConnect=0;fontColor=#232F3E;gradientColor=#FF4F8B;gradientDirection=north;fillColor=#BC1356;strokeColor=#ffffff;dashed=0;verticalLabelPosition=bottom;verticalAlign=top;align=center;html=1;fontSize=12;fontStyle=0;aspect=fixed;shape=mxgraph.aws4.resourceIcon;resIcon=mxgraph.aws4.sqs;" parent="tvmYtzpyHxfjCvwNAI-o-2" vertex="1">
          <mxGeometry x="530" y="210" width="78" height="78" as="geometry" />
        </mxCell>
        <mxCell id="tvmYtzpyHxfjCvwNAI-o-23" style="edgeStyle=orthogonalEdgeStyle;rounded=0;orthogonalLoop=1;jettySize=auto;html=1;" parent="tvmYtzpyHxfjCvwNAI-o-2" source="tvmYtzpyHxfjCvwNAI-o-5" target="tvmYtzpyHxfjCvwNAI-o-8" edge="1">
          <mxGeometry relative="1" as="geometry">
            <Array as="points">
              <mxPoint x="160" y="310" />
              <mxPoint x="160" y="310" />
            </Array>
          </mxGeometry>
        </mxCell>
        <mxCell id="tvmYtzpyHxfjCvwNAI-o-32" value="Configurações" style="edgeLabel;html=1;align=center;verticalAlign=middle;resizable=0;points=[];" parent="tvmYtzpyHxfjCvwNAI-o-23" vertex="1" connectable="0">
          <mxGeometry x="-0.6829" y="1" relative="1" as="geometry">
            <mxPoint as="offset" />
          </mxGeometry>
        </mxCell>
        <mxCell id="tvmYtzpyHxfjCvwNAI-o-24" style="edgeStyle=orthogonalEdgeStyle;rounded=0;orthogonalLoop=1;jettySize=auto;html=1;entryX=0;entryY=0.5;entryDx=0;entryDy=0;entryPerimeter=0;" parent="tvmYtzpyHxfjCvwNAI-o-2" source="tvmYtzpyHxfjCvwNAI-o-5" target="tvmYtzpyHxfjCvwNAI-o-9" edge="1">
          <mxGeometry relative="1" as="geometry">
            <Array as="points">
              <mxPoint x="252" y="200" />
              <mxPoint x="252" y="389" />
            </Array>
          </mxGeometry>
        </mxCell>
        <mxCell id="tvmYtzpyHxfjCvwNAI-o-30" value="Criar/Ler/Pesquisar Arquivo" style="edgeLabel;html=1;align=center;verticalAlign=middle;resizable=0;points=[];" parent="tvmYtzpyHxfjCvwNAI-o-24" vertex="1" connectable="0">
          <mxGeometry x="0.2952" y="2" relative="1" as="geometry">
            <mxPoint x="-4" y="-2" as="offset" />
          </mxGeometry>
        </mxCell>
        <mxCell id="tvmYtzpyHxfjCvwNAI-o-25" style="edgeStyle=orthogonalEdgeStyle;rounded=0;orthogonalLoop=1;jettySize=auto;html=1;" parent="tvmYtzpyHxfjCvwNAI-o-2" source="tvmYtzpyHxfjCvwNAI-o-5" target="tvmYtzpyHxfjCvwNAI-o-19" edge="1">
          <mxGeometry relative="1" as="geometry">
            <Array as="points">
              <mxPoint x="280" y="160" />
              <mxPoint x="280" y="119" />
            </Array>
          </mxGeometry>
        </mxCell>
        <mxCell id="tvmYtzpyHxfjCvwNAI-o-28" value="Envia Mensagem" style="edgeLabel;html=1;align=center;verticalAlign=middle;resizable=0;points=[];" parent="tvmYtzpyHxfjCvwNAI-o-25" vertex="1" connectable="0">
          <mxGeometry x="0.0439" y="2" relative="1" as="geometry">
            <mxPoint as="offset" />
          </mxGeometry>
        </mxCell>
        <mxCell id="tvmYtzpyHxfjCvwNAI-o-27" style="edgeStyle=orthogonalEdgeStyle;rounded=0;orthogonalLoop=1;jettySize=auto;html=1;entryX=0;entryY=0.5;entryDx=0;entryDy=0;entryPerimeter=0;startArrow=classic;startFill=1;" parent="tvmYtzpyHxfjCvwNAI-o-2" source="tvmYtzpyHxfjCvwNAI-o-5" target="tvmYtzpyHxfjCvwNAI-o-20" edge="1">
          <mxGeometry relative="1" as="geometry">
            <Array as="points">
              <mxPoint x="280" y="190" />
              <mxPoint x="280" y="249" />
            </Array>
          </mxGeometry>
        </mxCell>
        <mxCell id="tvmYtzpyHxfjCvwNAI-o-29" value="Envia/Recebe Mensagem" style="edgeLabel;html=1;align=center;verticalAlign=middle;resizable=0;points=[];" parent="tvmYtzpyHxfjCvwNAI-o-27" vertex="1" connectable="0">
          <mxGeometry x="0.042" relative="1" as="geometry">
            <mxPoint x="23" as="offset" />
          </mxGeometry>
        </mxCell>
        <mxCell id="tvmYtzpyHxfjCvwNAI-o-15" style="edgeStyle=orthogonalEdgeStyle;rounded=0;orthogonalLoop=1;jettySize=auto;html=1;" parent="1" source="tvmYtzpyHxfjCvwNAI-o-14" target="tvmYtzpyHxfjCvwNAI-o-5" edge="1">
          <mxGeometry relative="1" as="geometry" />
        </mxCell>
        <mxCell id="tvmYtzpyHxfjCvwNAI-o-14" value="Internet" style="ellipse;shape=cloud;whiteSpace=wrap;html=1;" parent="1" vertex="1">
          <mxGeometry x="100" y="174" width="120" height="80" as="geometry" />
        </mxCell>
        <mxCell id="tvmYtzpyHxfjCvwNAI-o-17" style="edgeStyle=orthogonalEdgeStyle;rounded=0;orthogonalLoop=1;jettySize=auto;html=1;entryX=0.16;entryY=0.55;entryDx=0;entryDy=0;entryPerimeter=0;" parent="1" source="tvmYtzpyHxfjCvwNAI-o-16" target="tvmYtzpyHxfjCvwNAI-o-14" edge="1">
          <mxGeometry relative="1" as="geometry" />
        </mxCell>
        <mxCell id="tvmYtzpyHxfjCvwNAI-o-16" value="Usuário" style="shape=umlActor;verticalLabelPosition=bottom;verticalAlign=top;html=1;outlineConnect=0;" parent="1" vertex="1">
          <mxGeometry x="20" y="188" width="30" height="60" as="geometry" />
        </mxCell>
        <mxCell id="U0Q4TyD0jJcMwIrQmPvk-1" value="AWS Cloud" style="points=[[0,0],[0.25,0],[0.5,0],[0.75,0],[1,0],[1,0.25],[1,0.5],[1,0.75],[1,1],[0.75,1],[0.5,1],[0.25,1],[0,1],[0,0.75],[0,0.5],[0,0.25]];outlineConnect=0;gradientColor=none;html=1;whiteSpace=wrap;fontSize=12;fontStyle=0;container=1;pointerEvents=0;collapsible=0;recursiveResize=0;shape=mxgraph.aws4.group;grIcon=mxgraph.aws4.group_aws_cloud_alt;strokeColor=#232F3E;fillColor=none;verticalAlign=top;align=left;spacingLeft=30;fontColor=#232F3E;dashed=0;" parent="1" vertex="1">
          <mxGeometry x="260" y="-1140" width="610" height="450" as="geometry" />
        </mxCell>
        <mxCell id="U0Q4TyD0jJcMwIrQmPvk-2" value="Region - us-east-1" style="points=[[0,0],[0.25,0],[0.5,0],[0.75,0],[1,0],[1,0.25],[1,0.5],[1,0.75],[1,1],[0.75,1],[0.5,1],[0.25,1],[0,1],[0,0.75],[0,0.5],[0,0.25]];outlineConnect=0;gradientColor=none;html=1;whiteSpace=wrap;fontSize=12;fontStyle=0;container=1;pointerEvents=0;collapsible=0;recursiveResize=0;shape=mxgraph.aws4.group;grIcon=mxgraph.aws4.group_region;strokeColor=#147EBA;fillColor=none;verticalAlign=top;align=left;spacingLeft=30;fontColor=#147EBA;dashed=1;" parent="U0Q4TyD0jJcMwIrQmPvk-1" vertex="1">
          <mxGeometry x="20" y="30" width="570" height="400" as="geometry" />
        </mxCell>
        <mxCell id="U0Q4TyD0jJcMwIrQmPvk-3" value="VPC - vpc-spring-boot-aws" style="points=[[0,0],[0.25,0],[0.5,0],[0.75,0],[1,0],[1,0.25],[1,0.5],[1,0.75],[1,1],[0.75,1],[0.5,1],[0.25,1],[0,1],[0,0.75],[0,0.5],[0,0.25]];outlineConnect=0;gradientColor=none;html=1;whiteSpace=wrap;fontSize=12;fontStyle=0;container=1;pointerEvents=0;collapsible=0;recursiveResize=0;shape=mxgraph.aws4.group;grIcon=mxgraph.aws4.group_vpc;strokeColor=#248814;fillColor=none;verticalAlign=top;align=left;spacingLeft=30;fontColor=#AAB7B8;dashed=0;" parent="U0Q4TyD0jJcMwIrQmPvk-2" vertex="1">
          <mxGeometry x="20" y="30" width="530" height="350" as="geometry" />
        </mxCell>
        <mxCell id="U0Q4TyD0jJcMwIrQmPvk-4" value="Public subnet" style="points=[[0,0],[0.25,0],[0.5,0],[0.75,0],[1,0],[1,0.25],[1,0.5],[1,0.75],[1,1],[0.75,1],[0.5,1],[0.25,1],[0,1],[0,0.75],[0,0.5],[0,0.25]];outlineConnect=0;gradientColor=none;html=1;whiteSpace=wrap;fontSize=12;fontStyle=0;container=1;pointerEvents=0;collapsible=0;recursiveResize=0;shape=mxgraph.aws4.group;grIcon=mxgraph.aws4.group_security_group;grStroke=0;strokeColor=#248814;fillColor=#E9F3E6;verticalAlign=top;align=left;spacingLeft=30;fontColor=#248814;dashed=0;" parent="U0Q4TyD0jJcMwIrQmPvk-3" vertex="1">
          <mxGeometry x="30" y="35" width="230" height="295" as="geometry" />
        </mxCell>
        <mxCell id="U0Q4TyD0jJcMwIrQmPvk-5" value="Security group" style="fillColor=none;strokeColor=#DD3522;verticalAlign=top;fontStyle=0;fontColor=#DD3522;" parent="U0Q4TyD0jJcMwIrQmPvk-4" vertex="1">
          <mxGeometry x="20" y="40" width="190" height="240" as="geometry" />
        </mxCell>
        <mxCell id="U0Q4TyD0jJcMwIrQmPvk-6" value="Microsserviço" style="sketch=0;points=[[0,0,0],[0.25,0,0],[0.5,0,0],[0.75,0,0],[1,0,0],[0,1,0],[0.25,1,0],[0.5,1,0],[0.75,1,0],[1,1,0],[0,0.25,0],[0,0.5,0],[0,0.75,0],[1,0.25,0],[1,0.5,0],[1,0.75,0]];outlineConnect=0;fontColor=#232F3E;gradientColor=#F78E04;gradientDirection=north;fillColor=#D05C17;strokeColor=#ffffff;dashed=0;verticalLabelPosition=top;verticalAlign=bottom;align=center;html=1;fontSize=12;fontStyle=0;aspect=fixed;shape=mxgraph.aws4.resourceIcon;resIcon=mxgraph.aws4.ec2;labelPosition=center;" parent="U0Q4TyD0jJcMwIrQmPvk-4" vertex="1">
          <mxGeometry x="76" y="100" width="78" height="78" as="geometry" />
        </mxCell>
        <mxCell id="U0Q4TyD0jJcMwIrQmPvk-7" value="LabInstanceProfile" style="sketch=0;outlineConnect=0;fontColor=#232F3E;gradientColor=none;fillColor=#BF0816;strokeColor=none;dashed=0;verticalLabelPosition=bottom;verticalAlign=top;align=center;html=1;fontSize=12;fontStyle=0;aspect=fixed;pointerEvents=1;shape=mxgraph.aws4.role;" parent="U0Q4TyD0jJcMwIrQmPvk-4" vertex="1">
          <mxGeometry x="50" y="215" width="53.18" height="30" as="geometry" />
        </mxCell>
        <mxCell id="U0Q4TyD0jJcMwIrQmPvk-8" value="Porta 22&lt;br&gt;Porta 8080&lt;br&gt;Porta 3306" style="text;html=1;strokeColor=none;fillColor=none;align=left;verticalAlign=middle;whiteSpace=wrap;rounded=0;" parent="U0Q4TyD0jJcMwIrQmPvk-4" vertex="1">
          <mxGeometry x="140" y="230" width="70" height="50" as="geometry" />
        </mxCell>
        <mxCell id="U0Q4TyD0jJcMwIrQmPvk-19" value="Private subnet" style="points=[[0,0],[0.25,0],[0.5,0],[0.75,0],[1,0],[1,0.25],[1,0.5],[1,0.75],[1,1],[0.75,1],[0.5,1],[0.25,1],[0,1],[0,0.75],[0,0.5],[0,0.25]];outlineConnect=0;gradientColor=none;html=1;whiteSpace=wrap;fontSize=12;fontStyle=0;container=1;pointerEvents=0;collapsible=0;recursiveResize=0;shape=mxgraph.aws4.group;grIcon=mxgraph.aws4.group_security_group;grStroke=0;strokeColor=#147EBA;fillColor=#E6F2F8;verticalAlign=top;align=left;spacingLeft=30;fontColor=#147EBA;dashed=0;" parent="U0Q4TyD0jJcMwIrQmPvk-3" vertex="1">
          <mxGeometry x="280" y="35" width="222" height="295" as="geometry" />
        </mxCell>
        <mxCell id="U0Q4TyD0jJcMwIrQmPvk-20" value="Security group" style="fillColor=none;strokeColor=#DD3522;verticalAlign=top;fontStyle=0;fontColor=#DD3522;" parent="U0Q4TyD0jJcMwIrQmPvk-19" vertex="1">
          <mxGeometry x="16" y="45" width="190" height="235" as="geometry" />
        </mxCell>
        <mxCell id="U0Q4TyD0jJcMwIrQmPvk-21" value="MySQL" style="sketch=0;points=[[0,0,0],[0.25,0,0],[0.5,0,0],[0.75,0,0],[1,0,0],[0,1,0],[0.25,1,0],[0.5,1,0],[0.75,1,0],[1,1,0],[0,0.25,0],[0,0.5,0],[0,0.75,0],[1,0.25,0],[1,0.5,0],[1,0.75,0]];outlineConnect=0;fontColor=#232F3E;gradientColor=#4D72F3;gradientDirection=north;fillColor=#3334B9;strokeColor=#ffffff;dashed=0;verticalLabelPosition=bottom;verticalAlign=top;align=center;html=1;fontSize=12;fontStyle=0;aspect=fixed;shape=mxgraph.aws4.resourceIcon;resIcon=mxgraph.aws4.rds;" parent="U0Q4TyD0jJcMwIrQmPvk-19" vertex="1">
          <mxGeometry x="72" y="100" width="78" height="78" as="geometry" />
        </mxCell>
        <mxCell id="U0Q4TyD0jJcMwIrQmPvk-26" style="edgeStyle=orthogonalEdgeStyle;rounded=0;orthogonalLoop=1;jettySize=auto;html=1;" parent="U0Q4TyD0jJcMwIrQmPvk-3" source="U0Q4TyD0jJcMwIrQmPvk-6" target="U0Q4TyD0jJcMwIrQmPvk-21" edge="1">
          <mxGeometry relative="1" as="geometry" />
        </mxCell>
        <mxCell id="U0Q4TyD0jJcMwIrQmPvk-27" style="edgeStyle=orthogonalEdgeStyle;rounded=0;orthogonalLoop=1;jettySize=auto;html=1;" parent="1" source="U0Q4TyD0jJcMwIrQmPvk-28" target="U0Q4TyD0jJcMwIrQmPvk-6" edge="1">
          <mxGeometry relative="1" as="geometry" />
        </mxCell>
        <mxCell id="U0Q4TyD0jJcMwIrQmPvk-28" value="Internet" style="ellipse;shape=cloud;whiteSpace=wrap;html=1;" parent="1" vertex="1">
          <mxGeometry x="110" y="-946" width="120" height="80" as="geometry" />
        </mxCell>
        <mxCell id="U0Q4TyD0jJcMwIrQmPvk-29" style="edgeStyle=orthogonalEdgeStyle;rounded=0;orthogonalLoop=1;jettySize=auto;html=1;entryX=0.16;entryY=0.55;entryDx=0;entryDy=0;entryPerimeter=0;" parent="1" source="U0Q4TyD0jJcMwIrQmPvk-30" target="U0Q4TyD0jJcMwIrQmPvk-28" edge="1">
          <mxGeometry relative="1" as="geometry" />
        </mxCell>
        <mxCell id="d9X_m-0Ex4aNOLhuJZhy-1" value="" style="rounded=0;whiteSpace=wrap;html=1;fillColor=none;" vertex="1" parent="1">
          <mxGeometry x="10" y="-1160" width="880" height="490" as="geometry" />
        </mxCell>
        <mxCell id="U0Q4TyD0jJcMwIrQmPvk-30" value="Usuário" style="shape=umlActor;verticalLabelPosition=bottom;verticalAlign=top;html=1;outlineConnect=0;" parent="1" vertex="1">
          <mxGeometry x="30" y="-932" width="30" height="60" as="geometry" />
        </mxCell>
      </root>
    </mxGraphModel>
  </diagram>
</mxfile>
